# Blender 5.1.0
# www.blender.org
mtllib box.mtl
o box
v 0.836450 0.746000 -0.115000
v 0.741450 0.746000 -0.115000
v 0.836450 0.746000 -0.044000
v 0.741450 0.746000 -0.044000
v 0.836450 0.788000 -0.044000
v 0.841450 0.788000 -0.041000
v 0.836450 0.788000 -0.115000
v 0.841450 0.788000 -0.118000
v 0.741450 0.788000 -0.115000
v 0.736450 0.788000 -0.118000
v 0.741450 0.788000 -0.044000
v 0.736450 0.788000 -0.041000
v 0.841450 0.743000 -0.118000
v 0.841450 0.743000 -0.041000
v 0.736450 0.743000 -0.041000
v 0.736450 0.743000 -0.118000
vn -0.0000 1.0000 -0.0000
vn -1.0000 -0.0000 -0.0000
vn -0.0000 -0.0000 1.0000
vn 1.0000 -0.0000 -0.0000
vn -0.0000 -0.0000 -1.0000
vn -0.0000 -1.0000 -0.0000
s 0
f 1//1 2//1 3//1
f 2//1 4//1 3//1
f 5//1 6//1 7//1
f 6//1 8//1 7//1
f 7//1 8//1 9//1
f 8//1 10//1 9//1
f 9//1 10//1 11//1
f 10//1 12//1 11//1
f 11//1 12//1 5//1
f 12//1 6//1 5//1
f 5//2 7//2 3//2
f 7//2 1//2 3//2
f 7//3 9//3 1//3
f 9//3 2//3 1//3
f 2//4 9//4 4//4
f 9//4 11//4 4//4
f 8//4 6//4 13//4
f 6//4 14//4 13//4
f 6//3 12//3 14//3
f 12//3 15//3 14//3
f 10//5 8//5 16//5
f 8//5 13//5 16//5
f 12//2 10//2 15//2
f 10//2 16//2 15//2
f 4//5 11//5 3//5
f 11//5 5//5 3//5
f 16//6 13//6 15//6
f 13//6 14//6 15//6
