# Blender 5.1.0
# www.blender.org
mtllib cam_overhead.mtl
o overhead_cam
v 0.766684 1.284649 -0.058391
v 0.767951 1.284767 -0.058644
v 0.768599 1.282246 -0.053238
v 0.768599 1.284782 -0.058676
v 0.769248 1.284767 -0.058644
v 0.763633 1.283669 -0.056289
v 0.764473 1.284087 -0.057186
v 0.765506 1.284419 -0.057897
v 0.762608 1.282109 -0.052943
v 0.762678 1.282656 -0.054117
v 0.763026 1.283185 -0.055250
v 0.764026 1.280604 -0.049717
v 0.763298 1.281058 -0.050691
v 0.762818 1.281568 -0.051783
v 0.767310 1.279770 -0.047927
v 0.766080 1.279945 -0.048302
v 0.764968 1.280227 -0.048909
v 0.771119 1.279945 -0.048302
v 0.769889 1.279770 -0.047927
v 0.768599 1.279710 -0.047800
v 0.773901 1.281058 -0.050691
v 0.773172 1.280604 -0.049717
v 0.772230 1.280227 -0.048909
v 0.774520 1.282656 -0.054117
v 0.774591 1.282109 -0.052943
v 0.774381 1.281568 -0.051783
v 0.772726 1.284087 -0.057186
v 0.773566 1.283669 -0.056289
v 0.774173 1.283185 -0.055251
v 0.770515 1.284649 -0.058391
v 0.771693 1.284419 -0.057897
v 0.768600 1.298376 -0.052336
v 0.767951 1.298361 -0.052305
v 0.766684 1.298244 -0.052052
v 0.765506 1.298013 -0.051558
v 0.764473 1.297682 -0.050846
v 0.763633 1.297264 -0.049950
v 0.763026 1.296779 -0.048911
v 0.762679 1.296251 -0.047778
v 0.762608 1.295703 -0.046604
v 0.762818 1.295162 -0.045444
v 0.763298 1.294653 -0.044351
v 0.764027 1.294199 -0.043378
v 0.764968 1.293822 -0.042570
v 0.766080 1.293539 -0.041963
v 0.767310 1.293364 -0.041588
v 0.768600 1.293305 -0.041461
v 0.769889 1.293364 -0.041588
v 0.771119 1.293539 -0.041963
v 0.772231 1.293822 -0.042570
v 0.773172 1.294199 -0.043378
v 0.773901 1.294653 -0.044351
v 0.774381 1.295162 -0.045444
v 0.774591 1.295703 -0.046604
v 0.774520 1.296251 -0.047778
v 0.774173 1.296779 -0.048911
v 0.773566 1.297264 -0.049950
v 0.772726 1.297681 -0.050847
v 0.771693 1.298013 -0.051558
v 0.770515 1.298244 -0.052052
v 0.769248 1.298361 -0.052305
v 0.753100 1.305110 -0.059679
v 0.784100 1.305110 -0.059679
v 0.753100 1.302392 -0.060947
v 0.784100 1.302391 -0.060947
v 0.753100 1.289290 -0.032850
v 0.784100 1.289290 -0.032850
v 0.753100 1.292009 -0.031582
v 0.784100 1.292009 -0.031582
vn -0.0000 -0.9063 -0.4226
vn -0.0001 -0.9063 -0.4225
vn 0.0001 -0.9063 -0.4226
vn -0.0000 -0.9064 -0.4224
vn -0.0000 -0.9063 -0.4227
vn -0.0000 -0.9063 -0.4225
vn -0.0001 -0.9063 -0.4227
vn -0.0001 -0.9063 -0.4226
vn 0.0541 0.4219 -0.9050
vn -0.0541 0.4220 -0.9050
vn -0.2150 0.4128 -0.8851
vn -0.2149 0.4127 -0.8851
vn -0.4199 0.3835 -0.8226
vn -0.4199 0.3836 -0.8225
vn -0.6052 0.3364 -0.7215
vn -0.6051 0.3365 -0.7215
vn -0.7621 0.2736 -0.5868
vn -0.7622 0.2736 -0.5867
vn -0.8835 0.1979 -0.4245
vn -0.9635 0.1131 -0.2425
vn -0.9636 0.1131 -0.2424
vn -0.9985 0.0229 -0.0490
vn -0.9985 0.0229 -0.0491
vn -0.9868 -0.0683 0.1466
vn -0.9868 -0.0684 0.1466
vn -0.9290 -0.1564 0.3355
vn -0.8277 -0.2371 0.5086
vn -0.8277 -0.2372 0.5086
vn -0.6877 -0.3068 0.6580
vn -0.5156 -0.3621 0.7766
vn -0.5155 -0.3622 0.7766
vn -0.3193 -0.4005 0.8589
vn -0.1081 -0.4201 0.9010
vn 0.1081 -0.4201 0.9010
vn 0.3193 -0.4005 0.8589
vn 0.5156 -0.3621 0.7766
vn 0.5155 -0.3621 0.7766
vn 0.6877 -0.3068 0.6580
vn 0.8277 -0.2372 0.5086
vn 0.8277 -0.2371 0.5086
vn 0.9290 -0.1564 0.3354
vn 0.9290 -0.1564 0.3355
vn 0.9868 -0.0684 0.1466
vn 0.9985 0.0229 -0.0491
vn 0.9635 0.1131 -0.2425
vn 0.9636 0.1130 -0.2425
vn 0.8835 0.1979 -0.4245
vn 0.8835 0.1980 -0.4245
vn 0.7622 0.2736 -0.5867
vn 0.7621 0.2736 -0.5868
vn 0.6052 0.3364 -0.7215
vn 0.4199 0.3835 -0.8225
vn 0.4199 0.3835 -0.8226
vn 0.2150 0.4127 -0.8851
vn 0.2150 0.4128 -0.8851
vn 0.0542 0.4219 -0.9050
vn -0.0000 0.4226 -0.9063
vn -0.0000 -0.9064 -0.4225
vn -0.0000 -0.9065 -0.4222
vn -0.0000 -0.9061 -0.4230
vn -0.0001 -0.9064 -0.4225
vn -0.0000 -0.9062 -0.4228
vn -1.0000 -0.0000 -0.0000
vn 1.0000 -0.0000 -0.0000
vn -0.0000 -0.4226 0.9063
vn -0.0000 0.9063 0.4226
s 0
f 1//1 2//1 3//1
f 2//2 4//2 3//2
f 3//3 4//3 5//3
f 6//4 7//4 3//4
f 7//5 8//5 3//5
f 3//1 8//1 1//1
f 9//1 10//1 3//1
f 10//6 11//6 3//6
f 3//5 11//5 6//5
f 12//5 13//5 3//5
f 13//6 14//6 3//6
f 3//1 14//1 9//1
f 15//1 16//1 3//1
f 16//7 17//7 3//7
f 3//1 17//1 12//1
f 18//8 19//8 3//8
f 19//3 20//3 3//3
f 3//8 20//8 15//8
f 21//6 22//6 3//6
f 22//5 23//5 3//5
f 3//1 23//1 18//1
f 24//5 25//5 3//5
f 25//6 26//6 3//6
f 3//5 26//5 21//5
f 27//1 28//1 3//1
f 28//4 29//4 3//4
f 3//1 29//1 24//1
f 5//1 30//1 3//1
f 30//8 31//8 3//8
f 3//1 31//1 27//1
f 5//9 4//9 32//9
f 32//10 4//10 33//10
f 4//10 2//10 33//10
f 2//11 1//11 33//11
f 33//12 1//12 34//12
f 1//13 8//13 34//13
f 34//14 8//14 35//14
f 8//15 7//15 35//15
f 35//16 7//16 36//16
f 7//17 6//17 36//17
f 36//18 6//18 37//18
f 6//19 11//19 37//19
f 37//19 11//19 38//19
f 11//20 10//20 38//20
f 38//21 10//21 39//21
f 10//22 9//22 39//22
f 39//23 9//23 40//23
f 9//24 14//24 40//24
f 40//25 14//25 41//25
f 14//26 13//26 41//26
f 41//26 13//26 42//26
f 13//27 12//27 42//27
f 42//28 12//28 43//28
f 12//29 17//29 43//29
f 43//29 17//29 44//29
f 17//30 16//30 44//30
f 44//31 16//31 45//31
f 16//32 15//32 45//32
f 45//32 15//32 46//32
f 15//33 20//33 46//33
f 46//33 20//33 47//33
f 20//34 19//34 47//34
f 47//34 19//34 48//34
f 19//35 18//35 48//35
f 48//35 18//35 49//35
f 18//36 23//36 49//36
f 49//37 23//37 50//37
f 23//38 22//38 50//38
f 50//38 22//38 51//38
f 22//39 21//39 51//39
f 51//40 21//40 52//40
f 21//41 26//41 52//41
f 52//42 26//42 53//42
f 26//43 25//43 53//43
f 53//43 25//43 54//43
f 25//44 24//44 54//44
f 54//44 24//44 55//44
f 24//45 29//45 55//45
f 55//46 29//46 56//46
f 29//47 28//47 56//47
f 56//48 28//48 57//48
f 28//49 27//49 57//49
f 57//50 27//50 58//50
f 27//51 31//51 58//51
f 58//51 31//51 59//51
f 31//52 30//52 59//52
f 59//53 30//53 60//53
f 30//54 5//54 60//54
f 60//55 5//55 61//55
f 5//56 32//56 61//56
f 62//57 63//57 64//57
f 63//57 65//57 64//57
f 56//1 57//1 65//1
f 57//1 58//1 65//1
f 58//1 59//1 65//1
f 65//6 59//6 60//6
f 41//5 42//5 66//5
f 49//58 50//58 67//58
f 50//5 51//5 67//5
f 67//1 51//1 52//1
f 34//5 35//5 64//5
f 35//58 36//58 64//58
f 64//1 36//1 37//1
f 42//58 43//58 66//58
f 43//1 44//1 66//1
f 66//5 44//5 45//5
f 52//5 53//5 67//5
f 53//1 54//1 67//1
f 67//1 54//1 65//1
f 54//3 55//3 65//3
f 65//1 55//1 56//1
f 60//5 61//5 65//5
f 61//59 32//59 65//59
f 65//1 32//1 64//1
f 32//60 33//60 64//60
f 64//61 33//61 34//61
f 37//7 38//7 64//7
f 38//1 39//1 64//1
f 64//1 39//1 66//1
f 39//62 40//62 66//62
f 66//4 40//4 41//4
f 45//58 46//58 66//58
f 46//4 47//4 66//4
f 66//1 47//1 67//1
f 47//4 48//4 67//4
f 67//5 48//5 49//5
f 68//63 62//63 66//63
f 62//63 64//63 66//63
f 63//64 69//64 65//64
f 69//64 67//64 65//64
f 69//65 68//65 67//65
f 68//65 66//65 67//65
f 69//66 63//66 68//66
f 63//66 62//66 68//66
