# Blender 5.1.0
# www.blender.org
mtllib desk.mtl
o desk
v 1.500000 0.000000 0.000000
v 1.140000 0.000000 0.000000
v 1.500000 0.000000 -0.750000
v 1.140000 0.000000 -0.750000
v 1.140000 0.700000 0.000000
v 1.140000 0.700000 -0.750000
v 0.000000 0.740000 0.000000
v 1.500000 0.740000 0.000000
v 0.000000 0.740000 -0.750000
v 1.500000 0.740000 -0.750000
v 0.000000 0.000000 0.000000
v 0.000000 0.000000 -0.750000
v 0.360000 0.000000 -0.750000
v 0.360000 0.700000 -0.750000
v 0.360000 0.700000 0.000000
v 0.360000 0.000000 0.000000
vn -0.0000 -1.0000 -0.0000
vn -1.0000 -0.0000 -0.0000
vn -0.0000 1.0000 -0.0000
vn -0.0000 -0.0000 -1.0000
vn -0.0000 -0.0000 1.0000
vn 1.0000 -0.0000 -0.0000
s 0
usemtl Material.001
f 1//1 2//1 3//1
f 2//1 4//1 3//1
f 5//2 6//2 2//2
f 6//2 4//2 2//2
f 7//3 8//3 9//3
f 8//3 10//3 9//3
f 7//2 9//2 11//2
f 9//2 12//2 11//2
f 13//4 12//4 14//4
f 12//4 9//4 14//4
f 14//4 9//4 6//4
f 9//4 10//4 6//4
f 6//4 10//4 4//4
f 10//4 3//4 4//4
f 2//5 1//5 5//5
f 1//5 8//5 5//5
f 5//5 8//5 15//5
f 8//5 7//5 15//5
f 15//5 7//5 16//5
f 7//5 11//5 16//5
f 10//6 8//6 3//6
f 8//6 1//6 3//6
f 16//1 11//1 13//1
f 11//1 12//1 13//1
f 14//6 15//6 13//6
f 15//6 16//6 13//6
f 14//1 6//1 15//1
f 6//1 5//1 15//1
