# Blender 5.1.0
# www.blender.org
mtllib desk_mat.mtl
o mat
v 0.565000 0.740000 0.000000
v 0.565000 0.740000 -0.410000
v 0.935000 0.740000 0.000000
v 0.935000 0.740000 -0.410000
v 0.557346 0.740000 -0.001522
v 0.545000 0.740000 -0.020000
v 0.561098 0.740000 -0.000384
v 0.545384 0.740000 -0.393902
v 0.546522 0.740000 -0.397654
v 0.550858 0.740000 -0.404142
v 0.553889 0.740000 -0.406629
v 0.557346 0.740000 -0.408478
v 0.942654 0.740000 -0.001522
v 0.938902 0.740000 -0.000384
v 0.955000 0.740000 -0.020000
v 0.955000 0.740000 -0.390000
v 0.954616 0.740000 -0.393902
v 0.548371 0.740000 -0.008889
v 0.550858 0.740000 -0.005858
v 0.553889 0.740000 -0.003371
v 0.546522 0.740000 -0.012346
v 0.545384 0.740000 -0.016098
v 0.545000 0.740000 -0.390000
v 0.548371 0.740000 -0.401111
v 0.561098 0.740000 -0.409616
v 0.938902 0.740000 -0.409616
v 0.942654 0.740000 -0.408478
v 0.946111 0.740000 -0.406629
v 0.949142 0.740000 -0.404142
v 0.951629 0.740000 -0.401111
v 0.953478 0.740000 -0.397654
v 0.953478 0.740000 -0.012346
v 0.951629 0.740000 -0.008889
v 0.949142 0.740000 -0.005858
v 0.954616 0.740000 -0.016098
v 0.946111 0.740000 -0.003371
v 0.935000 0.743000 -0.410000
v 0.565000 0.743000 -0.410000
v 0.565000 0.743000 0.000000
v 0.954616 0.743000 -0.016098
v 0.955000 0.743000 -0.020000
v 0.942654 0.743000 -0.001522
v 0.557346 0.743000 -0.408478
v 0.553889 0.743000 -0.406629
v 0.550858 0.743000 -0.404142
v 0.561098 0.743000 -0.409616
v 0.938902 0.743000 -0.000384
v 0.955000 0.743000 -0.390000
v 0.548371 0.743000 -0.401111
v 0.546522 0.743000 -0.397654
v 0.545384 0.743000 -0.393902
v 0.545000 0.743000 -0.390000
v 0.545000 0.743000 -0.020000
v 0.561098 0.743000 -0.000384
v 0.935000 0.743000 0.000000
v 0.949142 0.743000 -0.005858
v 0.951629 0.743000 -0.008889
v 0.953478 0.743000 -0.012346
v 0.557346 0.743000 -0.001522
v 0.545384 0.743000 -0.016098
v 0.546522 0.743000 -0.012346
v 0.548371 0.743000 -0.008889
v 0.550858 0.743000 -0.005858
v 0.553889 0.743000 -0.003371
v 0.946111 0.743000 -0.003371
v 0.949142 0.743000 -0.404142
v 0.954616 0.743000 -0.393902
v 0.951629 0.743000 -0.401111
v 0.953478 0.743000 -0.397654
v 0.946111 0.743000 -0.406629
v 0.942654 0.743000 -0.408478
v 0.938902 0.743000 -0.409616
vn -0.0000 -1.0000 -0.0000
vn -0.0000 -1.0000 0.0002
vn -0.0000 -1.0000 -0.0002
vn -0.0000 -1.0000 0.0001
vn -0.0000 -1.0000 -0.0001
vn -0.0000 1.0000 -0.0000
vn -0.0000 1.0000 -0.0001
vn -0.0000 1.0000 0.0001
vn -0.0980 -0.0000 -0.9952
vn -0.2903 -0.0000 -0.9569
vn -0.4714 -0.0000 -0.8819
vn -0.6344 -0.0000 -0.7730
vn -0.7730 -0.0000 -0.6344
vn -0.8819 -0.0000 -0.4714
vn -0.9569 -0.0000 -0.2903
vn -0.9952 -0.0000 -0.0980
vn -0.0000 -0.0000 -1.0000
vn -0.9952 -0.0000 0.0980
vn -0.9569 -0.0000 0.2903
vn -0.8819 -0.0000 0.4714
vn -0.7730 -0.0000 0.6344
vn -0.6344 -0.0000 0.7730
vn -0.4714 -0.0000 0.8819
vn -0.2903 -0.0000 0.9569
vn -0.0980 -0.0000 0.9952
vn -0.0000 -0.0000 1.0000
vn -1.0000 -0.0000 -0.0000
vn 0.0980 -0.0000 0.9952
vn 0.2903 -0.0000 0.9569
vn 0.4714 -0.0000 0.8819
vn 0.6344 -0.0000 0.7730
vn 0.7730 -0.0000 0.6344
vn 0.8819 -0.0000 0.4714
vn 0.9569 -0.0000 0.2903
vn 0.9952 -0.0000 0.0980
vn 1.0000 -0.0000 -0.0000
vn 0.9952 -0.0000 -0.0980
vn 0.9569 -0.0000 -0.2903
vn 0.8819 -0.0000 -0.4714
vn 0.7730 -0.0000 -0.6344
vn 0.6344 -0.0000 -0.7730
vn 0.4714 -0.0000 -0.8819
vn 0.2903 -0.0000 -0.9569
vn 0.0980 -0.0000 -0.9952
s 0
f 1//1 2//1 3//1
f 2//1 4//1 3//1
f 5//1 6//1 7//1
f 6//1 1//1 7//1
f 8//1 9//1 2//1
f 10//2 11//2 12//2
f 13//1 14//1 15//1
f 14//1 3//1 15//1
f 15//1 3//1 16//1
f 3//1 4//1 16//1
f 16//1 4//1 17//1
f 18//1 5//1 19//1
f 5//3 20//3 19//3
f 18//4 21//4 5//4
f 21//5 22//5 5//5
f 5//1 22//1 6//1
f 1//1 6//1 2//1
f 6//1 23//1 2//1
f 2//1 23//1 8//1
f 9//1 24//1 2//1
f 24//1 10//1 2//1
f 2//1 10//1 25//1
f 10//1 12//1 25//1
f 4//1 26//1 17//1
f 26//1 27//1 17//1
f 17//1 27//1 28//1
f 28//1 29//1 17//1
f 29//5 30//5 17//5
f 17//1 30//1 31//1
f 32//1 33//1 34//1
f 15//1 35//1 13//1
f 35//5 32//5 13//5
f 13//4 32//4 36//4
f 32//5 34//5 36//5
f 37//6 38//6 39//6
f 40//6 41//6 42//6
f 43//6 44//6 45//6
f 43//6 45//6 46//6
f 42//6 41//6 47//6
f 37//6 41//6 48//6
f 46//6 45//6 38//6
f 45//7 49//7 38//7
f 38//6 49//6 50//6
f 50//6 51//6 38//6
f 51//6 52//6 38//6
f 38//6 52//6 39//6
f 52//6 53//6 39//6
f 39//6 53//6 54//6
f 37//6 39//6 41//6
f 39//6 55//6 41//6
f 41//6 55//6 47//6
f 56//8 57//8 58//8
f 54//6 53//6 59//6
f 53//6 60//6 59//6
f 59//6 60//6 61//6
f 61//7 62//7 59//7
f 62//6 63//6 59//6
f 59//6 63//6 64//6
f 40//8 42//8 58//8
f 42//6 65//6 58//6
f 58//7 65//7 56//7
f 66//8 67//8 68//8
f 67//7 69//7 68//7
f 66//6 70//6 67//6
f 70//7 71//7 67//7
f 67//6 71//6 48//6
f 71//6 72//6 48//6
f 48//6 72//6 37//6
f 38//9 2//9 25//9
f 38//9 25//9 46//9
f 25//10 12//10 46//10
f 46//10 12//10 43//10
f 12//11 11//11 43//11
f 43//11 11//11 44//11
f 11//12 10//12 44//12
f 44//12 10//12 45//12
f 10//13 24//13 45//13
f 45//13 24//13 49//13
f 24//14 9//14 49//14
f 49//14 9//14 50//14
f 9//15 8//15 50//15
f 50//15 8//15 51//15
f 8//16 23//16 51//16
f 51//16 23//16 52//16
f 38//17 37//17 2//17
f 37//17 4//17 2//17
f 53//18 6//18 22//18
f 53//18 22//18 60//18
f 22//19 21//19 60//19
f 60//19 21//19 61//19
f 21//20 18//20 61//20
f 61//20 18//20 62//20
f 18//21 19//21 62//21
f 62//21 19//21 63//21
f 19//22 20//22 63//22
f 63//22 20//22 64//22
f 20//23 5//23 64//23
f 64//23 5//23 59//23
f 5//24 7//24 59//24
f 59//24 7//24 54//24
f 7//25 1//25 54//25
f 54//25 1//25 39//25
f 55//26 39//26 3//26
f 39//26 1//26 3//26
f 53//27 52//27 6//27
f 52//27 23//27 6//27
f 55//28 3//28 14//28
f 55//28 14//28 47//28
f 14//29 13//29 47//29
f 47//29 13//29 42//29
f 13//30 36//30 42//30
f 42//30 36//30 65//30
f 36//31 34//31 65//31
f 65//31 34//31 56//31
f 34//32 33//32 56//32
f 56//32 33//32 57//32
f 33//33 32//33 57//33
f 57//33 32//33 58//33
f 32//34 35//34 58//34
f 58//34 35//34 40//34
f 35//35 15//35 40//35
f 40//35 15//35 41//35
f 48//36 41//36 16//36
f 41//36 15//36 16//36
f 48//37 16//37 17//37
f 48//37 17//37 67//37
f 17//38 31//38 67//38
f 67//38 31//38 69//38
f 31//39 30//39 69//39
f 69//39 30//39 68//39
f 30//40 29//40 68//40
f 68//40 29//40 66//40
f 29//41 28//41 66//41
f 66//41 28//41 70//41
f 28//42 27//42 70//42
f 70//42 27//42 71//42
f 27//43 26//43 71//43
f 71//43 26//43 72//43
f 26//44 4//44 72//44
f 72//44 4//44 37//44
